<svg xmlns="http://www.w3.org/2000/svg" width="52.875" height="36.38" viewBox="0 0 52.875 36.38">
  <metadata><?xpacket begin="﻿" id="W5M0MpCehiHzreSzNTczkc9d"?>
<x:xmpmeta xmlns:x="adobe:ns:meta/" x:xmptk="Adobe XMP Core 5.6-c142 79.160924, 2017/07/13-01:06:39        ">
   <rdf:RDF xmlns:rdf="http://www.w3.org/1999/02/22-rdf-syntax-ns#">
      <rdf:Description rdf:about=""/>
   </rdf:RDF>
</x:xmpmeta>
                                                                                                    
                                                                                                    
                                                                                                    
                                                                                                    
                                                                                                    
                                                                                                    
                                                                                                    
                                                                                                    
                                                                                                    
                                                                                                    
                                                                                                    
                                                                                                    
                                                                                                    
                                                                                                    
                                                                                                    
                                                                                                    
                                                                                                    
                                                                                                    
                                                                                                    
                                                                                                    
                           
<?xpacket end="w"?></metadata>
<defs>
    <style>
      .cls-1 {
        fill: #fff;
        fill-rule: evenodd;
      }
    </style>
  </defs>
  <path id="MAIL" class="cls-1" d="M810.6,3419.13l16.1-15.59a2.465,2.465,0,0,1,.738,1.76v31.4a2.457,2.457,0,0,1-.668,1.68Zm-35.218-15.66a2.446,2.446,0,0,1,1.653-.65h47.924a2.45,2.45,0,0,1,1.654.65L801,3423.48Zm-0.157,34.91a2.457,2.457,0,0,1-.668-1.68v-31.4a2.465,2.465,0,0,1,.738-1.76l16.1,15.59ZM801,3428.44l6.722-6.52,18.939,16.58a2.463,2.463,0,0,1-1.7.68H777.038a2.463,2.463,0,0,1-1.7-.68l18.939-16.58Z" transform="translate(-774.563 -3402.81)"/>
</svg>
